<svg id="Layer_1" data-name="Layer 1" xmlns="http://www.w3.org/2000/svg" xmlns:xlink="http://www.w3.org/1999/xlink" viewBox="0 0 12 12"><defs><style>.cls-1{fill:#1ab261;}.cls-2{opacity:0.14;fill:url(#linear-gradient);}.cls-3{fill:#32b668;}.cls-4{fill:url(#linear-gradient-2);}.cls-5{fill:#056a38;}.cls-6{fill:url(#linear-gradient-3);}.cls-7{fill:#047640;}.cls-8{fill:url(#linear-gradient-4);}</style><linearGradient id="linear-gradient" x1="1.71" y1="4.96" x2="3.41" y2="4.43" gradientUnits="userSpaceOnUse"><stop offset="0" stop-color="#010101"/><stop offset="1" stop-color="#1ab261"/></linearGradient><linearGradient id="linear-gradient-2" x1="5.41" y1="11.01" x2="4.49" y2="8.72" gradientUnits="userSpaceOnUse"><stop offset="0" stop-color="#010101"/><stop offset="1" stop-color="#32b668"/></linearGradient><linearGradient id="linear-gradient-3" x1="11.11" y1="6.63" x2="8.72" y2="7.53" gradientUnits="userSpaceOnUse"><stop offset="0" stop-color="#010101"/><stop offset="1" stop-color="#056a38"/></linearGradient><linearGradient id="linear-gradient-4" x1="6.47" y1="0.71" x2="7.45" y2="3.12" gradientUnits="userSpaceOnUse"><stop offset="0" stop-color="#010101"/><stop offset="1" stop-color="#047640"/></linearGradient></defs><path class="cls-1" d="M9.26,2.7a6.25,6.25,0,0,0-3.44.93,1.06,1.06,0,0,0-.15.15l-.08.09h0L5.51,4,4,5.51a.7.7,0,0,0,0,1h0a2.69,2.69,0,0,1-.51-.81A8.63,8.63,0,0,1,2.76,3c0-.1,0-.19,0-.28L5,.4,5.1.34A1.36,1.36,0,0,1,7,.4Z" transform="translate(0 0)"/><path class="cls-2" d="M3.12,2.6a2.46,2.46,0,0,1,0-.26l-.36.36c0,.09,0,.18,0,.28a8.63,8.63,0,0,0,.65,2.67,2.69,2.69,0,0,0,.51.81h0a.7.7,0,0,1,0-.91,1.83,1.83,0,0,1-.14-.28A8.63,8.63,0,0,1,3.12,2.6Z" transform="translate(0 0)"/><path class="cls-3" d="M6.42,8.11a.18.18,0,0,1,0,.07h0l-.13.13a4.31,4.31,0,0,1-2,.81,9.85,9.85,0,0,1-1.5.16l0,0L.4,7a.87.87,0,0,1-.17-.21A1.34,1.34,0,0,1,.4,5L2.74,2.7c0,.09,0,.18,0,.28a8.63,8.63,0,0,0,.65,2.67,2.69,2.69,0,0,0,.51.81L4,6.54,5.51,8.05a.68.68,0,0,0,.75.15l.11,0A.1.1,0,0,0,6.42,8.11Z" transform="translate(0 0)"/><path class="cls-4" d="M6.37,8.15l-.11,0a.68.68,0,0,1-.56,0,5.4,5.4,0,0,1-1.81.64A10.84,10.84,0,0,1,2.42,9l.27.26,0,0a9.85,9.85,0,0,0,1.5-.16,4.31,4.31,0,0,0,2-.81l.13-.13h0a.18.18,0,0,0,0-.07A.1.1,0,0,1,6.37,8.15Z" transform="translate(0 0)"/><path class="cls-5" d="M9.3,9.27h0L7,11.6l0,.05A1.35,1.35,0,0,1,5,11.6L2.72,9.28a9.85,9.85,0,0,0,1.5-.16,4.31,4.31,0,0,0,2-.81l.13-.13h0a.18.18,0,0,0,0-.07l.07-.06L8.05,6.49a.68.68,0,0,0,.08-.88A6.35,6.35,0,0,1,9.28,9.08C9.29,9.14,9.29,9.21,9.3,9.27Z" transform="translate(0 0)"/><path class="cls-6" d="M8.13,5.61a.7.7,0,0,1,0,.77A8,8,0,0,1,9,9.4c0,.06,0,.12,0,.18l.3-.3h0c0-.06,0-.13,0-.19A6.35,6.35,0,0,0,8.13,5.61Z" transform="translate(0 0)"/><path class="cls-7" d="M11.6,7,9.3,9.27c0-.06,0-.13,0-.19A6.35,6.35,0,0,0,8.13,5.61h0a.22.22,0,0,0-.07-.09h0l-.79-.8L6.49,4a.68.68,0,0,0-.63-.19.73.73,0,0,0-.19.07l-.08,0,.08-.09a1.06,1.06,0,0,1,.15-.15A6.25,6.25,0,0,1,9.26,2.7h0L11.6,5a1.12,1.12,0,0,1,.17.2h0A1.35,1.35,0,0,1,11.6,7Z" transform="translate(0 0)"/><path class="cls-8" d="M9.27,2.71h0a6.25,6.25,0,0,0-3.44.93,1.06,1.06,0,0,0-.15.15l-.08.09.08,0a.7.7,0,0,1,.65,0A6.82,6.82,0,0,1,9.58,3Z" transform="translate(0 0)"/></svg>